<?xml version="1.0" encoding="UTF-8"?>
<svg width="64px" height="64px" viewBox="0 0 64 64" version="1.1" xmlns="http://www.w3.org/2000/svg" xmlns:xlink="http://www.w3.org/1999/xlink">
    <title>Culture/21_현대카드프리비아</title>
    <g id="Culture/21_현대카드프리비아" stroke="none" stroke-width="1" fill="none" fill-rule="evenodd">
        <g id="Group-33" transform="translate(9.501900, 19.356900)">
            <path d="M3.9483,2.1363 L3.9483,2.6563 C3.9483,2.7303 4.0093,2.7803 4.0753,2.7803 L4.9723,2.7803 C5.0593,2.7803 5.0943,2.8153 5.0943,2.8963 L5.0943,3.4153 C5.0943,3.4953 5.0593,3.5313 4.9723,3.5313 L4.0753,3.5313 C4.0093,3.5313 3.9483,3.5823 3.9483,3.6683 L3.9483,4.1883 C3.9483,4.2613 4.0093,4.3073 4.0753,4.3073 L4.9723,4.3073 C5.0593,4.3073 5.0943,4.3463 5.0943,4.4283 L5.0943,5.4073 C5.0943,5.4903 5.1403,5.5323 5.2213,5.5323 L5.8853,5.5323 C5.9543,5.5323 6.0103,5.4903 6.0103,5.4073 L6.0103,0.4503 C6.0103,0.3683 5.9543,0.3233 5.8853,0.3233 L5.2213,0.3233 C5.1403,0.3233 5.0943,0.3683 5.0943,0.4503 L5.0943,1.8893 C5.0943,1.9643 5.0593,2.0033 4.9723,2.0033 L4.0753,2.0033 C4.0093,2.0033 3.9483,2.0553 3.9483,2.1363" id="Fill-3" fill="#000000"></path>
            <path d="M1.7784,7.0777 C1.9104,7.1707 2.0604,7.1967 2.2284,7.1967 L5.9974,7.1967 C6.0744,7.1967 6.1324,7.1527 6.1324,7.0777 L6.1324,6.5357 C6.1324,6.4547 6.0744,6.4107 5.9974,6.4107 L2.0904,6.4107 C2.0074,6.4107 1.9694,6.3687 1.9694,6.2887 L1.9694,5.2297 C1.9694,5.1477 1.9154,5.0977 1.8424,5.0977 L1.1514,5.0977 C1.0824,5.0977 1.0244,5.1477 1.0244,5.2297 L1.0244,6.2307 C1.0244,6.4367 1.0984,6.5817 1.2324,6.6847 L1.7784,7.0777 Z" id="Fill-5" fill="#000000"></path>
            <path d="M3.6905,3.316 C3.6905,2.535 3.0685,1.895 1.9965,1.895 C0.9215,1.895 0.3035,2.545 0.3035,3.316 C0.3035,4.106 0.9215,4.746 1.9965,4.746 C3.0685,4.746 3.6905,4.106 3.6905,3.316 M1.1995,3.316 C1.1995,2.959 1.4665,2.622 1.9845,2.622 C2.5245,2.622 2.8025,2.959 2.8025,3.316 C2.8025,3.68 2.5245,4.02 1.9845,4.02 C1.4665,4.02 1.1995,3.68 1.1995,3.316" id="Fill-7" fill="#000000"></path>
            <path d="M4.001,1.647 C4.083,1.647 4.128,1.6 4.128,1.526 L4.128,1.019 C4.128,0.944 4.083,0.899 4.001,0.899 L2.59,0.899 C2.508,0.899 2.475,0.852 2.475,0.785 L2.475,0.127 C2.475,0.047 2.417,0 2.343,0 L1.697,0 C1.615,0 1.565,0.047 1.565,0.127 L1.565,0.785 C1.565,0.852 1.531,0.899 1.455,0.899 L0.127,0.899 C0.046,0.899 0,0.944 0,1.019 L0,1.526 C0,1.6 0.046,1.647 0.127,1.647 L4.001,1.647 Z" id="Fill-9" fill="#231916"></path>
            <path d="M10.5665,5.6949 L10.5665,7.0529 C10.5665,7.1289 10.6045,7.1749 10.6855,7.1749 L11.3085,7.1749 C11.3845,7.1749 11.4375,7.1289 11.4375,7.0529 L11.4375,3.8309 C11.4375,3.7499 11.4755,3.7159 11.5435,3.7159 L12.2245,3.7159 C12.3055,3.7159 12.3395,3.7499 12.3395,3.8309 L12.3395,7.1519 C12.3395,7.2319 12.3925,7.2789 12.4655,7.2789 L13.1005,7.2789 C13.1745,7.2789 13.2155,7.2319 13.2155,7.1519 L13.2155,0.4479 C13.2155,0.3679 13.1745,0.3239 13.1005,0.3239 L12.4655,0.3239 C12.3925,0.3239 12.3395,0.3679 12.3395,0.4479 L12.3395,2.8039 C12.3395,2.8799 12.3055,2.9259 12.2245,2.9259 L11.5435,2.9259 C11.4755,2.9259 11.4375,2.8799 11.4375,2.8039 L11.4375,0.5299 C11.4375,0.4479 11.3845,0.4039 11.3085,0.4039 L10.6855,0.4039 C10.6045,0.4039 10.5665,0.4479 10.5665,0.5299 L10.5665,4.8499 C10.5665,4.9239 10.5275,4.9659 10.4465,4.9659 L8.3185,4.9819 C8.2405,4.9819 8.2065,4.9399 8.2065,4.8669 L8.2065,1.6989 C8.2065,1.6169 8.2405,1.5789 8.3185,1.5789 L9.6325,1.5789 C9.7095,1.5789 9.7545,1.5309 9.7545,1.4519 L9.7545,0.9209 C9.7545,0.8409 9.7095,0.7889 9.6325,0.7889 L7.4435,0.7889 C7.3595,0.7889 7.3115,0.8359 7.3115,0.9089 L7.3115,4.8719 C7.3115,5.0729 7.3825,5.2219 7.5245,5.3279 L7.9335,5.6559 C8.0675,5.7519 8.2115,5.7819 8.3905,5.7819 L8.3955,5.7819 C8.5395,5.7819 8.6945,5.7719 8.8335,5.7519 L10.4465,5.5809 C10.5275,5.5679 10.5665,5.6139 10.5665,5.6949" id="Fill-11" fill="#000000"></path>
            <path d="M20.9024,3.5865 L20.9024,3.0505 C20.9024,2.9785 20.8494,2.9215 20.7704,2.9215 L20.0034,2.9215 C19.9284,2.9215 19.8954,2.8795 19.8954,2.8035 L19.8954,0.4475 C19.8954,0.3675 19.8494,0.3235 19.7634,0.3235 L19.1004,0.3235 C19.0234,0.3235 18.9784,0.3675 18.9784,0.4475 L18.9784,7.1575 C18.9784,7.2335 19.0234,7.2785 19.1004,7.2785 L19.7634,7.2785 C19.8494,7.2785 19.8954,7.2335 19.8954,7.1575 L19.8954,3.8305 C19.8954,3.7495 19.9284,3.7155 20.0034,3.7155 L20.7704,3.7155 C20.8494,3.7155 20.9024,3.6685 20.9024,3.5865" id="Fill-13" fill="#000000"></path>
            <path d="M16.504,1.4732 C16.602,1.4732 16.641,1.5152 16.641,1.6022 L16.641,2.6852 C16.641,2.7632 16.602,2.8042 16.521,2.8042 L14.434,2.8042 C14.35,2.8042 14.31,2.8512 14.31,2.9322 L14.31,3.4842 C14.31,3.5642 14.35,3.6062 14.434,3.6062 L16.521,3.6062 C16.602,3.6062 16.641,3.6502 16.641,3.7262 L16.641,5.9272 C16.641,6.0062 16.689,6.0562 16.779,6.0562 L16.811,6.0562 C16.894,6.0562 16.951,6.0172 17.011,5.9442 L17.476,5.2572 C17.54,5.1552 17.552,5.0622 17.552,4.9422 L17.552,1.8962 C17.552,1.5262 17.54,1.3472 17.291,1.1622 L16.811,0.8182 C16.674,0.7272 16.549,0.6852 16.394,0.6852 L14.391,0.6852 C14.31,0.6852 14.259,0.7322 14.259,0.8182 L14.259,1.3472 C14.259,1.4352 14.31,1.4732 14.391,1.4732 L16.504,1.4732 Z" id="Fill-15" fill="#000000"></path>
            <path d="M27.6299,6.4263 C27.7139,6.4263 27.7619,6.3793 27.7619,6.2993 L27.7619,5.7603 C27.7619,5.6783 27.7139,5.6253 27.6299,5.6253 L21.2719,5.6253 C21.1829,5.6253 21.1399,5.6783 21.1399,5.7603 L21.1399,6.2993 C21.1399,6.3793 21.1829,6.4263 21.2719,6.4263 L27.6299,6.4263 Z" id="Fill-17" fill="#000000"></path>
            <path d="M22.7452,3.9556 C22.8722,4.0486 23.0162,4.0836 23.1882,4.0836 L26.8972,4.0836 C26.9672,4.0836 27.0192,4.0366 27.0192,3.9556 L27.0192,3.3936 C27.0192,3.3106 26.9672,3.2656 26.8972,3.2656 L23.0402,3.2656 C22.9582,3.2656 22.9132,3.2256 22.9132,3.1496 L22.9132,1.5956 C22.9132,1.5156 22.9582,1.4736 23.0402,1.4736 L26.8112,1.4736 C26.8972,1.4736 26.9432,1.4346 26.9432,1.3496 L26.9432,0.8116 C26.9432,0.7316 26.8972,0.6846 26.8112,0.6846 L22.1182,0.6846 C22.0372,0.6846 21.9912,0.7316 21.9912,0.8116 L21.9912,3.1106 C21.9912,3.3106 22.0582,3.4616 22.1922,3.5636 L22.7452,3.9556 Z" id="Fill-19" fill="#231916"></path>
            <path d="M6.7901,9.9458 C6.6601,9.9458 6.4641,9.9668 6.2821,9.9978 L2.4201,10.8088 C2.2241,10.8668 2.1461,10.7908 2.1461,10.5848 L2.1461,10.3548 C2.1461,10.1798 2.0101,10.0898 1.8311,10.0898 L0.3151,10.0898 C0.1551,10.0898 0.0911,10.1798 0.0911,10.3548 L0.0911,20.6028 C0.0911,20.7778 0.1551,20.8418 0.3151,20.8418 L1.8311,20.8418 C2.0101,20.8418 2.1461,20.7778 2.1461,20.5928 L2.1461,17.2398 C2.1461,17.0788 2.2121,16.9638 2.3941,16.9638 L4.7911,16.9638 C5.1571,16.9638 5.5051,16.9078 5.8201,16.7168 L7.4951,15.7338 C8.2211,15.3298 8.5671,14.7148 8.5671,13.8788 L8.5671,11.7538 C8.5671,10.4688 7.4831,9.9458 6.7901,9.9458 L6.7901,9.9458 Z M6.4931,15.1508 C6.4931,15.3298 6.4041,15.3978 6.2181,15.3978 L2.3941,15.3978 C2.2121,15.3978 2.1461,15.3298 2.1461,15.1508 L2.1461,11.9498 C2.1461,11.7538 2.2121,11.6558 2.3941,11.6558 L6.2181,11.6558 C6.4041,11.6558 6.4931,11.7538 6.4931,11.9498 L6.4931,15.1508 Z" id="Fill-21" fill="#000000"></path>
            <path d="M16.504,16.2163 C16.394,16.0623 16.435,15.9403 16.597,15.8413 L17.356,15.3883 C18.103,14.9613 18.466,14.3613 18.466,13.5283 L18.466,11.7403 C18.466,10.4873 17.356,9.9453 16.652,9.9453 C16.521,9.9453 16.341,9.9693 16.157,9.9953 L12.275,10.8023 C12.093,10.8653 12.007,10.7853 12.007,10.5843 L12.007,10.3543 C12.007,10.1803 11.893,10.0943 11.708,10.0943 L10.186,10.0943 C10.014,10.0943 9.963,10.1803 9.963,10.3543 L9.963,20.6053 C9.963,20.7843 10.014,20.8413 10.186,20.8413 L11.708,20.8413 C11.893,20.8413 12.007,20.7843 12.007,20.5933 L12.007,16.9073 C12.007,16.7353 12.069,16.6303 12.249,16.6303 L14.166,16.6303 C14.358,16.6303 14.498,16.7233 14.604,16.8773 L16.755,20.6213 C16.832,20.7843 16.976,20.8413 17.138,20.8413 L18.952,20.8413 C19.153,20.8413 19.175,20.8113 19.101,20.6563 L16.504,16.2163 Z M16.37,14.7613 C16.37,14.9443 16.276,15.0463 16.095,15.0463 L12.249,15.0463 C12.069,15.0463 12.007,14.9613 12.007,14.7703 L12.007,11.9483 C12.007,11.7533 12.069,11.6553 12.249,11.6553 L16.095,11.6553 C16.276,11.6553 16.37,11.7533 16.37,11.9483 L16.37,14.7613 Z" id="Fill-23" fill="#000000"></path>
            <path d="M20.5626,10.0952 C20.4146,10.0952 20.3616,10.1752 20.3616,10.3382 L20.3616,20.6042 C20.3616,20.7822 20.4146,20.8412 20.5626,20.8412 L22.1116,20.8412 C22.2916,20.8412 22.3936,20.7822 22.3936,20.6042 L22.3936,10.3382 C22.3936,10.1752 22.2916,10.0952 22.1116,10.0952 L20.5626,10.0952 Z" id="Fill-25" fill="#000000"></path>
            <path d="M32.8233,10.0952 L31.2583,10.0952 C31.0663,10.0952 30.9643,10.1752 30.8993,10.3382 L28.3553,19.3362 C28.3363,19.4512 28.2573,19.4932 28.1303,19.4932 C28.0273,19.4932 27.9453,19.4512 27.9453,19.3362 L25.3613,10.3382 C25.3183,10.1752 25.2153,10.0952 25.0313,10.0952 L23.4493,10.0952 C23.2863,10.0952 23.2233,10.1752 23.2863,10.3252 L26.4143,20.5932 C26.4523,20.7822 26.5573,20.8412 26.7343,20.8412 L29.5103,20.8412 C29.7263,20.8412 29.8423,20.7822 29.8913,20.5932 L33.0313,10.3252 C33.0573,10.1752 33.0083,10.0952 32.8233,10.0952" id="Fill-27" fill="#000000"></path>
            <path d="M34.2159,10.0952 C34.0719,10.0952 34.0079,10.1752 34.0079,10.3382 L34.0079,20.6042 C34.0079,20.7822 34.0719,20.8412 34.2159,20.8412 L35.7599,20.8412 C35.9449,20.8412 36.0419,20.7822 36.0419,20.6042 L36.0419,10.3382 C36.0419,10.1752 35.9449,10.0952 35.7599,10.0952 L34.2159,10.0952 Z" id="Fill-29" fill="#000000"></path>
            <path d="M43.667,10.3365 C43.603,10.1825 43.487,10.0945 43.281,10.0945 L40.506,10.0945 C40.333,10.0945 40.211,10.1825 40.176,10.3365 L37.04,20.6095 C36.997,20.7845 37.04,20.8395 37.198,20.8395 L38.799,20.8395 C39.003,20.8395 39.084,20.7845 39.135,20.5985 L39.773,18.3865 C39.802,18.2385 39.934,18.1225 40.113,18.1225 L43.695,18.1225 C43.865,18.1225 43.983,18.2385 44.062,18.3865 L44.685,20.5985 C44.736,20.7845 44.852,20.8395 45.026,20.8395 L46.592,20.8395 C46.78,20.8395 46.833,20.7845 46.78,20.6095 L43.667,10.3365 Z M43.233,16.5385 L40.544,16.5385 C40.376,16.5385 40.305,16.4805 40.359,16.2745 L41.686,11.5815 C41.738,11.4935 41.788,11.4375 41.903,11.4375 C42.006,11.4375 42.083,11.4935 42.116,11.5815 L43.459,16.2745 C43.517,16.4805 43.446,16.5385 43.233,16.5385 L43.233,16.5385 Z" id="Fill-31" fill="#000000"></path>
        </g>
    </g>
</svg>