<?xml version="1.0" encoding="UTF-8"?>
<svg width="64px" height="64px" viewBox="0 0 64 64" version="1.1" xmlns="http://www.w3.org/2000/svg" xmlns:xlink="http://www.w3.org/1999/xlink">
    <title>Shopping/10_온라인할인</title>
    <g id="Shopping/10_온라인할인" stroke="none" stroke-width="1" fill="none" fill-rule="evenodd">
        <g id="Group-11" transform="translate(13.132800, 10.250000)">
            <path d="M19,37.875 C18.447,37.875 18,37.428 18,36.875 L18,30.11 C18,29.558 18.447,29.11 19,29.11 C19.553,29.11 20,29.558 20,30.11 L20,36.875 C20,37.428 19.553,37.875 19,37.875" id="Fill-3" fill="#231916"></path>
            <polygon id="Fill-5" fill="#231916" points="9.4692 37.875 28.5292 37.875 28.5292 35.875 9.4692 35.875"></polygon>
            <path d="M37,30.875 L1,30.875 C0.447,30.875 0,30.428 0,29.875 L0,7.875 C0,7.322 0.447,6.875 1,6.875 L23.996,6.875 L23.996,8.875 L2,8.875 L2,28.875 L36,28.875 L36,17.875 L38,17.875 L38,29.875 C38,30.428 37.553,30.875 37,30.875" id="Fill-7" fill="#000000"></path>
            <path d="M33.002,1.75 C28.524,1.75 24.882,5.393 24.882,9.869 C24.882,14.347 28.524,17.989 33.002,17.989 C37.479,17.989 41.121,14.347 41.121,9.869 C41.121,5.393 37.479,1.75 33.002,1.75 M33.002,19.739 C27.56,19.739 23.132,15.312 23.132,9.869 C23.132,4.428 27.56,0 33.002,0 C38.443,0 42.871,4.428 42.871,9.869 C42.871,15.312 38.443,19.739 33.002,19.739" id="Fill-8" fill="#000000"></path>
            <path d="M35.0801,12.0146 C35.0801,12.3376 35.2061,12.8776 35.7901,12.8776 C36.1131,12.8776 36.5101,12.6436 36.5101,12.0146 C36.5101,11.3676 36.1501,11.1236 35.7901,11.1236 C35.5491,11.1236 35.0801,11.2416 35.0801,12.0146 M34.1011,12.0146 C34.1011,10.9896 34.7481,10.2616 35.7901,10.2616 C36.4651,10.2616 37.4981,10.6386 37.4981,12.0146 C37.4981,13.3536 36.4741,13.7316 35.7901,13.7316 C34.4331,13.7316 34.1011,12.6436 34.1011,12.0146 M29.4841,7.7666 C29.4841,8.0996 29.6191,8.6296 30.1941,8.6296 C30.5711,8.6296 30.9401,8.4056 30.9401,7.7666 C30.9401,7.1286 30.5621,6.8766 30.1941,6.8766 C29.9601,6.8766 29.4841,7.0026 29.4841,7.7666 M28.5051,7.7666 C28.5051,6.7426 29.1511,6.0226 30.1851,6.0226 C30.9221,6.0226 31.9021,6.4096 31.9021,7.7666 C31.9021,9.1066 30.9221,9.4836 30.1851,9.4836 C28.8541,9.4836 28.5051,8.4226 28.5051,7.7666 M36.2921,6.0786 L30.9791,13.6656 C30.9161,13.7646 30.8251,13.7916 30.7271,13.7916 L29.7571,13.7916 C29.6481,13.7916 29.6401,13.7736 29.6931,13.6746 L35.0151,6.0876 C35.0781,6.0166 35.1411,5.9526 35.2481,5.9526 L36.2371,5.9526 C36.3271,5.9526 36.3461,6.0066 36.2921,6.0786" id="Fill-9" fill="#000000"></path>
            <path d="M30.1943,7.0771 C30.0413,7.0771 29.6843,7.1441 29.6843,7.7661 C29.6843,7.9661 29.7343,8.4301 30.1943,8.4301 C30.4433,8.4301 30.7403,8.3141 30.7403,7.7661 C30.7403,7.1271 30.3223,7.0771 30.1943,7.0771 L30.1943,7.0771 Z M30.1943,8.8301 C29.5223,8.8301 29.2843,8.2571 29.2843,7.7661 C29.2843,6.9621 29.7743,6.6771 30.1943,6.6771 C30.6653,6.6771 31.1403,7.0141 31.1403,7.7661 C31.1403,8.5511 30.6513,8.8301 30.1943,8.8301 L30.1943,8.8301 Z M30.1853,6.2231 C29.2863,6.2231 28.7053,6.8281 28.7053,7.7661 C28.7053,7.9221 28.7463,9.2831 30.1853,9.2831 C30.5413,9.2831 31.7023,9.1741 31.7023,7.7661 C31.7023,6.3341 30.5413,6.2231 30.1853,6.2231 L30.1853,6.2231 Z M30.1853,9.6831 C28.7013,9.6831 28.3043,8.4781 28.3043,7.7661 C28.3043,6.6031 29.0603,5.8221 30.1853,5.8221 C31.0693,5.8221 32.1023,6.3321 32.1023,7.7661 C32.1023,9.1811 31.0693,9.6831 30.1853,9.6831 L30.1853,9.6831 Z M35.7903,11.3241 C35.5573,11.3241 35.2803,11.4431 35.2803,12.0141 C35.2803,12.2141 35.3303,12.6781 35.7903,12.6781 C36.0303,12.6781 36.3093,12.5041 36.3093,12.0141 C36.3093,11.5761 36.1203,11.3241 35.7903,11.3241 L35.7903,11.3241 Z M35.7903,13.0781 C35.1183,13.0781 34.8803,12.5051 34.8803,12.0141 C34.8803,11.2111 35.3503,10.9241 35.7903,10.9241 C36.2143,10.9241 36.7103,11.2101 36.7103,12.0141 C36.7103,12.7451 36.2333,13.0781 35.7903,13.0781 L35.7903,13.0781 Z M35.7903,10.4621 C34.8843,10.4621 34.3003,11.0711 34.3003,12.0141 C34.3003,12.1701 34.3423,13.5311 35.7903,13.5311 C35.9443,13.5311 37.2983,13.4891 37.2983,12.0141 C37.2983,10.5361 36.0423,10.4621 35.7903,10.4621 L35.7903,10.4621 Z M35.7903,13.9311 C34.2983,13.9311 33.9003,12.7261 33.9003,12.0141 C33.9003,10.8471 34.6603,10.0611 35.7903,10.0611 C36.4993,10.0611 37.6983,10.4731 37.6983,12.0141 C37.6983,13.3391 36.7403,13.9311 35.7903,13.9311 L35.7903,13.9311 Z M36.1313,5.9601 L36.2923,6.0791 L36.1323,5.9581 C36.1323,5.9591 36.1313,5.9591 36.1313,5.9601 L36.1313,5.9601 Z M29.9963,13.5921 L30.7273,13.5921 C30.7893,13.5921 30.7993,13.5761 30.8113,13.5571 L35.9963,6.1531 L35.2483,6.1531 C35.2333,6.1531 35.2213,6.1561 35.1643,6.2211 L29.9963,13.5921 Z M30.7273,13.9921 L29.7573,13.9921 C29.6993,13.9921 29.5633,13.9921 29.4933,13.8731 C29.4223,13.7551 29.4863,13.6361 29.5173,13.5791 L34.8503,5.9731 C34.9273,5.8851 35.0453,5.7531 35.2483,5.7531 L36.2373,5.7531 C36.4053,5.7531 36.4743,5.8531 36.4963,5.8961 C36.5173,5.9391 36.5573,6.0561 36.4543,6.1961 L31.1433,13.7801 C31.0843,13.8741 30.9593,13.9921 30.7273,13.9921 L30.7273,13.9921 Z" id="Fill-10" fill="#000000"></path>
        </g>
    </g>
</svg>